<svg xmlns="http://www.w3.org/2000/svg" viewBox="0 0 64 64" role="img" aria-label="Discord">
  <path fill="#111111" d="M50.9 16.8A44.4 44.4 0 0 0 40.1 13l-1.4 2.8a39 39 0 0 0-13.4 0L23.9 13a44.4 44.4 0 0 0-10.8 3.8C6.3 27.1 4.5 37.1 5.4 47c4.6 3.4 9 5.4 13.3 6.8l3-4.9a27.5 27.5 0 0 1-4.8-2.3l1.2-.9c9.2 4.3 19 4.3 28 0l1.2.9a28.8 28.8 0 0 1-4.8 2.3l3 4.9c4.4-1.4 8.8-3.4 13.3-6.8 1.1-11.5-1.9-21.4-7.9-30.2ZM24.7 41c-2.7 0-5-2.6-5-5.7s2.2-5.7 5-5.7 5 2.6 5 5.7-2.2 5.7-5 5.7Zm14.6 0c-2.7 0-5-2.6-5-5.7s2.2-5.7 5-5.7 5 2.6 5 5.7-2.2 5.7-5 5.7Z"/>
</svg>
